<svg width="222" height="39" viewBox="0 0 222 39" fill="none" xmlns="http://www.w3.org/2000/svg">
<path d="M54.7893 21.3079C54.7893 23.1441 53.7655 24.4517 51.6085 24.4517C49.3221 24.4517 48.3752 23.2208 48.3752 21.3846V10.1657H43.7214V21.2272C43.7214 25.6059 46.3477 28.1725 51.6045 28.1725C56.8329 28.1725 59.435 25.5534 59.435 21.2272V10.1697H54.7812V21.3079H54.7893Z" fill="white"/>
<path d="M69.9849 14.0237C68.1194 14.0237 66.8325 14.8106 65.833 16.2513H65.752V14.4151H61.6243V27.8335H65.9098V20.4201C65.9098 18.7696 66.8568 17.5912 68.2732 17.5912C69.6653 17.5912 70.3775 18.5597 70.3775 19.9762V27.8375H74.663V19.1085C74.663 16.1222 72.927 14.0237 69.9849 14.0237Z" fill="white"/>
<path d="M81.15 9.09624H76.8645V12.5588H81.15V9.09624Z" fill="white"/>
<path d="M81.15 14.4151H76.8645V27.8335H81.15V14.4151Z" fill="white"/>
<path d="M88.6972 10.1697H84.5169V14.4151H82.7282V17.8777H84.5169V24.2983C84.5169 27.1797 86.3056 27.9949 88.8025 27.9949C89.9598 27.9949 90.7732 27.89 91.1415 27.7851V24.6656C90.9837 24.6656 90.5628 24.6938 90.1945 24.6938C89.2759 24.6938 88.6972 24.4315 88.6972 23.3822V17.8777H91.1415V14.4151H88.6972V10.1697Z" fill="white"/>
<path d="M100.263 20.1296C99.8421 21.4411 99.4738 23.2208 99.4738 23.2208H99.4212C99.4212 23.2208 99.0003 21.4371 98.5795 20.1296L96.7665 14.4151H92.2463L96.2161 24.7422C96.7665 26.1587 97.0296 26.9457 97.0296 27.5187C97.0296 28.4348 96.5318 28.9352 95.2692 28.9352H93.7962V32.2646H96.5804C99.2877 32.2646 100.575 31.1629 101.651 28.0191L106.305 14.4151H102.019L100.263 20.1296Z" fill="white"/>
<path d="M18.8256 6.97755L25.0172 10.541C25.2397 10.6661 25.2478 11.0131 25.0172 11.1382L17.6601 15.3756C17.4376 15.5048 17.1745 15.4967 16.9681 15.3756L9.61109 11.1382C9.38447 11.0172 9.38043 10.662 9.61109 10.541L15.7986 6.97755V0L0 9.09624V27.2887L6.05802 23.8019V16.6751C6.05398 16.4208 6.35344 16.2392 6.57601 16.3764L13.9331 20.6138C14.1556 20.743 14.2811 20.973 14.2811 21.2111V29.6818C14.2851 29.9361 13.9857 30.1177 13.7631 29.9804L7.57152 26.417L1.51349 29.9038L17.3121 39L33.1107 29.9038L27.0527 26.417L20.8611 29.9804C20.6426 30.1136 20.3351 29.9401 20.3431 29.6818V21.2111C20.3431 20.9569 20.4848 20.7309 20.6912 20.6138L28.0482 16.3764C28.2667 16.2433 28.5743 16.4128 28.5662 16.6751V23.8019L34.6242 27.2887V9.09624L18.8256 0V6.97755Z" fill="white"/>
<path d="M221.476 17.8568L219.151 18.2712C219.054 17.9719 218.899 17.687 218.687 17.4165C218.482 17.146 218.201 16.9244 217.847 16.7517C217.492 16.579 217.049 16.4927 216.517 16.4927C215.79 16.4927 215.184 16.6567 214.697 16.9848C214.211 17.3071 213.968 17.7244 213.968 18.2366C213.968 18.6798 214.131 19.0367 214.457 19.3072C214.783 19.5777 215.31 19.7993 216.036 19.972L218.13 20.4554C219.343 20.7375 220.246 21.172 220.841 21.7591C221.436 22.3461 221.734 23.1088 221.734 24.0469C221.734 24.8412 221.505 25.5491 221.047 26.1707C220.595 26.7866 219.963 27.2701 219.151 27.6212C218.344 27.9722 217.409 28.1478 216.345 28.1478C214.869 28.1478 213.665 27.8312 212.732 27.1981C211.8 26.5592 211.228 25.6527 211.016 24.4786L213.496 24.0987C213.651 24.7491 213.968 25.2412 214.449 25.575C214.929 25.9031 215.556 26.0671 216.328 26.0671C217.169 26.0671 217.841 25.8916 218.344 25.5405C218.848 25.1837 219.099 24.7491 219.099 24.2369C219.099 23.8225 218.945 23.4742 218.636 23.1922C218.333 22.9102 217.867 22.6972 217.237 22.5533L215.006 22.0612C213.776 21.7792 212.867 21.3303 212.278 20.7144C211.694 20.0986 211.402 19.3187 211.402 18.3748C211.402 17.592 211.62 16.9071 212.055 16.32C212.489 15.733 213.09 15.2754 213.857 14.9473C214.623 14.6135 215.501 14.4466 216.491 14.4466C217.915 14.4466 219.036 14.7574 219.854 15.379C220.672 15.9948 221.213 16.8208 221.476 17.8568Z" fill="white"/>
<path d="M201.476 23.3822L201.459 20.231H201.905L207.156 14.6193H210.228L204.239 21.008H203.836L201.476 23.3822ZM199.116 27.8802V10.1989H201.682V27.8802H199.116ZM207.439 27.8802L202.72 21.5778L204.488 19.7734L210.589 27.8802H207.439Z" fill="white"/>
<path d="M190.809 27.8802V14.6192H193.289V16.7258H193.426C193.666 16.0121 194.09 15.4509 194.696 15.0423C195.308 14.6279 196 14.4207 196.773 14.4207C196.933 14.4207 197.122 14.4264 197.339 14.4379C197.562 14.4494 197.737 14.4638 197.862 14.4811V16.9503C197.759 16.9215 197.576 16.8898 197.313 16.8553C197.05 16.815 196.787 16.7949 196.524 16.7949C195.917 16.7949 195.377 16.9244 194.902 17.1834C194.433 17.4366 194.061 17.7906 193.787 18.2453C193.512 18.6942 193.375 19.2065 193.375 19.782V27.8802H190.809Z" fill="white"/>
<path d="M182.768 28.1478C181.532 28.1478 180.454 27.8629 179.533 27.2931C178.612 26.7233 177.897 25.9261 177.388 24.9016C176.879 23.8771 176.624 22.68 176.624 21.3101C176.624 19.9345 176.879 18.7316 177.388 17.7014C177.897 16.6711 178.612 15.8711 179.533 15.3013C180.454 14.7315 181.532 14.4466 182.768 14.4466C184.004 14.4466 185.082 14.7315 186.003 15.3013C186.924 15.8711 187.639 16.6711 188.148 17.7014C188.657 18.7316 188.912 19.9345 188.912 21.3101C188.912 22.68 188.657 23.8771 188.148 24.9016C187.639 25.9261 186.924 26.7233 186.003 27.2931C185.082 27.8629 184.004 28.1478 182.768 28.1478ZM182.777 25.9808C183.577 25.9808 184.241 25.7679 184.767 25.3419C185.294 24.916 185.683 24.3491 185.934 23.6412C186.192 22.9332 186.32 22.1533 186.32 21.3015C186.32 20.4554 186.192 19.6784 185.934 18.9705C185.683 18.2568 185.294 17.6841 184.767 17.2524C184.241 16.8208 183.577 16.6049 182.777 16.6049C181.97 16.6049 181.301 16.8208 180.769 17.2524C180.242 17.6841 179.851 18.2568 179.593 18.9705C179.341 19.6784 179.216 20.4554 179.216 21.3015C179.216 22.1533 179.341 22.9332 179.593 23.6412C179.851 24.3491 180.242 24.916 180.769 25.3419C181.301 25.7679 181.97 25.9808 182.777 25.9808Z" fill="white"/>
<path d="M161.502 27.8802L157.623 14.6192H160.275L162.858 24.3577H162.986L165.578 14.6192H168.229L170.803 24.3146H170.932L173.498 14.6192H176.149L172.279 27.8802H169.662L166.985 18.3057H166.788L164.11 27.8802H161.502Z" fill="white"/>
<path d="M147.547 32.853C147.163 32.853 146.814 32.8214 146.5 32.758C146.185 32.7005 145.951 32.6372 145.796 32.5681L146.414 30.4529C146.883 30.5795 147.301 30.6342 147.667 30.617C148.033 30.5997 148.356 30.4616 148.636 30.2026C148.922 29.9436 149.174 29.5205 149.391 28.9334L149.709 28.0528L144.887 14.6192H147.632L150.97 24.9103H151.108L154.445 14.6192H157.2L151.768 29.65C151.517 30.3407 151.196 30.9249 150.807 31.4026C150.418 31.8861 149.955 32.2487 149.417 32.4904C148.879 32.7321 148.256 32.853 147.547 32.853Z" fill="white"/>
<path d="M137.442 28.1737C136.607 28.1737 135.852 28.0183 135.177 27.7075C134.502 27.3909 133.967 26.9334 133.572 26.3348C133.183 25.7362 132.989 25.0024 132.989 24.1333C132.989 23.385 133.132 22.7692 133.418 22.2857C133.704 21.8022 134.09 21.4195 134.576 21.1375C135.062 20.8554 135.606 20.6425 136.206 20.4986C136.807 20.3547 137.419 20.2453 138.043 20.1705C138.832 20.0784 139.473 20.0036 139.965 19.9461C140.457 19.8827 140.814 19.782 141.037 19.6439C141.26 19.5058 141.372 19.2813 141.372 18.9705V18.91C141.372 18.1561 141.16 17.5719 140.737 17.1575C140.319 16.7431 139.696 16.5359 138.866 16.5359C138.003 16.5359 137.322 16.7287 136.824 17.1143C136.332 17.4942 135.992 17.9172 135.803 18.3834L133.392 17.8309C133.678 17.0251 134.095 16.3747 134.645 15.8797C135.199 15.379 135.837 15.0164 136.558 14.7919C137.279 14.5617 138.037 14.4466 138.832 14.4466C139.358 14.4466 139.916 14.5099 140.505 14.6365C141.1 14.7574 141.655 14.9818 142.17 15.3099C142.69 15.638 143.117 16.1071 143.448 16.7172C143.78 17.3215 143.946 18.1071 143.946 19.0741V27.8802H141.441V26.0671H141.338C141.172 26.401 140.923 26.729 140.591 27.0514C140.259 27.3737 139.833 27.6413 139.312 27.8543C138.792 28.0672 138.168 28.1737 137.442 28.1737ZM138 26.1017C138.709 26.1017 139.315 25.9607 139.819 25.6786C140.328 25.3966 140.714 25.0283 140.977 24.5736C141.246 24.1131 141.38 23.621 141.38 23.0972V21.3878C141.289 21.4799 141.112 21.5663 140.848 21.6468C140.591 21.7217 140.296 21.7879 139.965 21.8454C139.633 21.8972 139.31 21.9461 138.995 21.9922C138.68 22.0325 138.417 22.067 138.206 22.0958C137.708 22.1591 137.253 22.2656 136.841 22.4152C136.435 22.5649 136.109 22.7807 135.863 23.0627C135.623 23.339 135.503 23.7073 135.503 24.1678C135.503 24.8067 135.737 25.2901 136.206 25.6182C136.675 25.9405 137.273 26.1017 138 26.1017Z" fill="white"/>
<path d="M131.121 10.1989V27.8802H128.556V10.1989H131.121Z" fill="white"/>
<path d="M114.272 27.8802V10.1989H120.536C121.903 10.1989 123.036 10.4493 123.934 10.9501C124.832 11.4508 125.504 12.1357 125.95 13.0048C126.397 13.8681 126.62 14.8408 126.62 15.9229C126.62 17.0107 126.394 17.9892 125.942 18.8583C125.496 19.7216 124.821 20.4065 123.917 20.913C123.019 21.4138 121.889 21.6641 120.527 21.6641H116.22V19.4022H120.287C121.151 19.4022 121.852 19.2525 122.389 18.9532C122.927 18.6482 123.322 18.2338 123.574 17.71C123.825 17.1863 123.951 16.5906 123.951 15.9229C123.951 15.2553 123.825 14.6624 123.574 14.1444C123.322 13.6264 122.924 13.2206 122.381 12.9271C121.843 12.6336 121.134 12.4868 120.253 12.4868H116.924V27.8802H114.272Z" fill="white"/>
</svg>
